HIERARCHY
ROOT Root
{
	OFFSET 0.00000 0.00000 0.00000
	CHANNELS 6 Xposition Yposition Zposition Zrotation Xrotation Yrotation
	JOINT Hips
	{
		OFFSET 0 0 0	
		CHANNELS 3 Zrotation Xrotation Yrotation
		JOINT Spine
		{
			OFFSET 0 4 0	
			CHANNELS 3 Zrotation Xrotation Yrotation
			JOINT Spine1
			{
				OFFSET 0 19.4 0	
				CHANNELS 3 Zrotation Xrotation Yrotation
				JOINT Spine2
				{
					OFFSET 0 16.6 0	
					CHANNELS 3 Zrotation Xrotation Yrotation
					JOINT LeftCollar
					{
						OFFSET 0 10 0	
						CHANNELS 3 Zrotation Xrotation Yrotation
						JOINT LeftArm
						{
							OFFSET 15.6 -2 3	
							CHANNELS 3 Zrotation Xrotation Yrotation
							JOINT LeftForeArm
							{
								OFFSET 3.5 -27 -1	
								CHANNELS 3 Zrotation Xrotation Yrotation
								JOINT LeftHand
								{
									OFFSET 1 -27 1	
									CHANNELS 3 Zrotation Xrotation Yrotation
									End Site
									{
										OFFSET 0 -15 0
									}
								}
							}
						}
					}
					JOINT RightCollar
					{
						OFFSET 0 10 0	
						CHANNELS 3 Zrotation Xrotation Yrotation
						JOINT RightArm
						{
							OFFSET -15.6 -2 3	
							CHANNELS 3 Zrotation Xrotation Yrotation
							JOINT RightForeArm
							{
								OFFSET -3.5 -27 -1	
								CHANNELS 3 Zrotation Xrotation Yrotation
								JOINT RightHand
								{
									OFFSET -1 -27 1	
									CHANNELS 3 Zrotation Xrotation Yrotation
									End Site
									{
										OFFSET 0 -15 0
									}
								}
							}
						}
					}
					JOINT Neck
					{
						OFFSET 0 10 0	
						CHANNELS 3 Zrotation Xrotation Yrotation
						JOINT Head
						{
							OFFSET 0 12.7 3	
							CHANNELS 3 Zrotation Xrotation Yrotation
							End Site
							{
								OFFSET 0 12.7 3
							}
						}
					}
				}
			}
		}
	}
	JOINT LeftHip
	{
		OFFSET 0 0 0	
		CHANNELS 3 Zrotation Xrotation Yrotation
		JOINT LeftUpLeg
		{
			OFFSET 8.8 -6 0	
			CHANNELS 3 Zrotation Xrotation Yrotation
			JOINT LeftLeg
			{
				OFFSET 0 -39 2	
				CHANNELS 3 Zrotation Xrotation Yrotation
				JOINT LeftFoot
				{
					OFFSET 0 -43 -2	
					CHANNELS 3 Zrotation Xrotation Yrotation
					JOINT LeftFootFront
					{
						OFFSET 0 -7 8.5	
						CHANNELS 3 Zrotation Xrotation Yrotation
						End Site
						{
							OFFSET 0 -0.5 9
						}
					}
				}
				JOINT LeftHeel
				{
					OFFSET 0 -43 -2	
					CHANNELS 3 Zrotation Xrotation Yrotation
					End Site
					{
						OFFSET 0 -7.5 -5
					}
				}
			}
		}
	}
	JOINT RightHip
	{
		OFFSET 0 0 0	
		CHANNELS 3 Zrotation Xrotation Yrotation
		JOINT RightUpLeg
		{
			OFFSET -8.8 -6 0	
			CHANNELS 3 Zrotation Xrotation Yrotation
			JOINT RightLeg
			{
				OFFSET 0 -39 2	
				CHANNELS 3 Zrotation Xrotation Yrotation
				JOINT RightFoot
				{
					OFFSET 0 -43 -2	
					CHANNELS 3 Zrotation Xrotation Yrotation
					JOINT RightFootFront
					{
						OFFSET 0 -7 8.5	
						CHANNELS 3 Zrotation Xrotation Yrotation
						End Site
						{
							OFFSET 0 -0.5 9
						}
					}
				}
				JOINT RightHeel
				{
					OFFSET 0 -43 -2	
					CHANNELS 3 Zrotation Xrotation Yrotation
					End Site
					{
						OFFSET 0 -7.5 -5
					}
				}
			}
		}
	}
}
MOTION
Frames: 12
Frame Time: 0.05
0 95.5 0 -0 0 -0 -0.14104 4.4491 -121.55 -2.7255 12.015 -3.0238 -2.7255 12.015 -3.0238 -2.3269 10.083 -2.5725 -0 0 -0 22.357 -24.844 -13.12 -59.509 -55.782 -51.27 -5.8355 12.412 9.2538 -0 0 -0 151.82 -48.245 -154.03 -28.357 -41.034 -51.021 -20.996 -40.482 -53.669 17.892 -6.5616 -30.862 17.892 -6.5616 -30.862 -0 0 -0 -0 0 -0 -0 0 -0 -0 0 -0 -0 0 -0 -0 0 -0 -0 0 -0 -0 0 -0 -0 0 -0 -0 0 -0 -0 0 -0 -0 0 -0 
0 95.5 0 -0 0 -0 -0.16044 4.4517 -121.54 -2.7392 12.022 -3.0525 -2.7392 12.022 -3.0524 -2.3388 10.09 -2.5967 -0 0 -0 22.358 -24.851 -13.122 -59.42 -55.795 -51.156 -5.8658 12.427 9.1778 -0 0 -0 151.77 -48.229 -154.1 -28.363 -41.045 -51.027 -20.987 -40.526 -53.682 17.901 -6.5617 -30.83 17.901 -6.5617 -30.83 -0 0 -0 -0 0 -0 -0 0 -0 -0 0 -0 -0 0 -0 -0 0 -0 -0 0 -0 -0 0 -0 -0 0 -0 -0 0 -0 -0 0 -0 -0 0 -0 
0 95.5 0 -0 0 -0 -0.17565 4.4492 -121.52 -2.7679 11.997 -3.0972 -2.7679 11.997 -3.0972 -2.3634 10.068 -2.6346 -0 0 -0 22.387 -24.759 -13.118 -59.428 -55.8 -51.167 -5.877 12.47 9.136 -0 0 -0 151.66 -48.277 -154.3 -28.358 -41.073 -51.028 -21.001 -40.561 -53.683 17.915 -6.5103 -30.798 17.915 -6.5103 -30.798 -0 0 -0 -0 0 -0 -0 0 -0 -0 0 -0 -0 0 -0 -0 0 -0 -0 0 -0 -0 0 -0 -0 0 -0 -0 0 -0 -0 0 -0 -0 0 -0 
0 95.5 0 -0 0 -0 -0.15893 4.4292 -121.53 -2.8013 11.987 -3.1126 -2.8013 11.987 -3.1125 -2.3915 10.059 -2.6479 -0 0 -0 22.421 -24.786 -13.16 -59.39 -55.811 -51.175 -5.9132 12.492 9.1247 -0 0 -0 151.68 -48.29 -154.38 -28.362 -41.113 -51.001 -21.044 -40.565 -53.702 17.952 -6.5158 -30.774 17.952 -6.5158 -30.774 -0 0 -0 -0 0 -0 -0 0 -0 -0 0 -0 -0 0 -0 -0 0 -0 -0 0 -0 -0 0 -0 -0 0 -0 -0 0 -0 -0 0 -0 -0 0 -0 
0 95.5 0 -0 0 -0 -0.12879 4.4188 -121.56 -2.8224 11.955 -3.1329 -2.8224 11.955 -3.1329 -2.4094 10.032 -2.6652 -0 0 -0 22.411 -24.772 -13.177 -59.343 -55.835 -51.131 -5.9504 12.52 9.0623 -0 0 -0 151.6 -48.342 -154.53 -28.401 -41.142 -50.975 -21.083 -40.572 -53.758 17.961 -6.5071 -30.75 17.961 -6.5071 -30.75 -0 0 -0 -0 0 -0 -0 0 -0 -0 0 -0 -0 0 -0 -0 0 -0 -0 0 -0 -0 0 -0 -0 0 -0 -0 0 -0 -0 0 -0 -0 0 -0 
0 95.5 0 -0 0 -0 -0.11935 4.4553 -121.6 -2.8203 11.948 -3.1504 -2.8203 11.948 -3.1504 -2.4079 10.027 -2.6798 -0 0 -0 22.388 -24.773 -13.157 -59.331 -55.864 -51.134 -5.9796 12.529 9.0214 -0 0 -0 151.51 -48.372 -154.64 -28.442 -41.172 -50.976 -21.108 -40.578 -53.797 17.963 -6.5102 -30.724 17.963 -6.5102 -30.724 -0 0 -0 -0 0 -0 -0 0 -0 -0 0 -0 -0 0 -0 -0 0 -0 -0 0 -0 -0 0 -0 -0 0 -0 -0 0 -0 -0 0 -0 -0 0 -0 
0 95.5 0 -0 0 -0 -0.12011 4.466 -121.67 -2.8418 11.93 -3.1401 -2.8418 11.93 -3.1401 -2.4257 10.011 -2.6714 -0 0 -0 22.386 -24.756 -13.193 -59.306 -55.875 -51.101 -5.9838 12.53 8.9867 -0 0 -0 151.47 -48.43 -154.74 -28.458 -41.197 -50.95 -21.128 -40.575 -53.822 17.961 -6.495 -30.729 17.961 -6.495 -30.729 -0 0 -0 -0 0 -0 -0 0 -0 -0 0 -0 -0 0 -0 -0 0 -0 -0 0 -0 -0 0 -0 -0 0 -0 -0 0 -0 -0 0 -0 -0 0 -0 
0 95.5 0 -0 0 -0 -0.10779 4.4707 -121.75 -2.861 11.894 -3.1345 -2.861 11.894 -3.1345 -2.4417 9.9808 -2.6669 -0 0 -0 22.413 -24.7 -13.212 -59.308 -55.859 -51.092 -6.0029 12.523 9.0167 -0 0 -0 151.39 -48.514 -154.88 -28.456 -41.202 -50.9 -21.151 -40.609 -53.877 17.92 -6.4835 -30.741 17.92 -6.4835 -30.741 -0 0 -0 -0 0 -0 -0 0 -0 -0 0 -0 -0 0 -0 -0 0 -0 -0 0 -0 -0 0 -0 -0 0 -0 -0 0 -0 -0 0 -0 -0 0 -0 
0 95.5 0 -0 0 -0 -0.11124 4.4817 -121.83 -2.8828 11.887 -3.1219 -2.8828 11.887 -3.1219 -2.4597 9.9754 -2.6567 -0 0 -0 22.472 -24.7 -13.181 -59.344 -55.812 -51.06 -6.0282 12.502 9.0511 -0 0 -0 151.42 -48.552 -154.89 -28.459 -41.221 -50.878 -21.154 -40.606 -53.925 17.886 -6.5202 -30.757 17.886 -6.5202 -30.757 -0 0 -0 -0 0 -0 -0 0 -0 -0 0 -0 -0 0 -0 -0 0 -0 -0 0 -0 -0 0 -0 -0 0 -0 -0 0 -0 -0 0 -0 -0 0 -0 
0 95.5 0 -0 0 -0 -0.10845 4.4838 -121.88 -2.8981 11.856 -3.1398 -2.8981 11.856 -3.1398 -2.4727 9.9486 -2.6718 -0 0 -0 22.484 -24.622 -13.159 -59.325 -55.811 -50.997 -6.0433 12.503 9.085 -0 0 -0 151.36 -48.625 -154.97 -28.451 -41.251 -50.854 -21.172 -40.603 -53.951 17.849 -6.4988 -30.769 17.849 -6.4988 -30.769 -0 0 -0 -0 0 -0 -0 0 -0 -0 0 -0 -0 0 -0 -0 0 -0 -0 0 -0 -0 0 -0 -0 0 -0 -0 0 -0 -0 0 -0 -0 0 -0 
0 95.5 0 -0 0 -0 -0.094018 4.4858 -121.9 -2.8967 11.845 -3.1568 -2.8967 11.845 -3.1568 -2.4717 9.94 -2.6859 -0 0 -0 22.45 -24.614 -13.147 -59.305 -55.798 -50.986 -6.0586 12.526 9.061 -0 0 -0 151.36 -48.668 -154.96 -28.481 -41.309 -50.85 -21.158 -40.593 -53.984 17.828 -6.5037 -30.786 17.828 -6.5037 -30.786 -0 0 -0 -0 0 -0 -0 0 -0 -0 0 -0 -0 0 -0 -0 0 -0 -0 0 -0 -0 0 -0 -0 0 -0 -0 0 -0 -0 0 -0 -0 0 -0 
0 95.5 0 -0 0 -0 -0.078215 4.4811 -121.91 -2.9022 11.842 -3.1667 -2.9022 11.842 -3.1667 -2.4765 9.9374 -2.6943 -0 0 -0 22.45 -24.648 -13.139 -59.333 -55.768 -51.033 -6.0812 12.561 9.0096 -0 0 -0 151.38 -48.691 -154.95 -28.53 -41.36 -50.898 -21.09 -40.607 -53.956 17.829 -6.5057 -30.798 17.829 -6.5057 -30.798 -0 0 -0 -0 0 -0 -0 0 -0 -0 0 -0 -0 0 -0 -0 0 -0 -0 0 -0 -0 0 -0 -0 0 -0 -0 0 -0 -0 0 -0 -0 0 -0 
